<?xml version="1.0" standalone="no"?>
<svg
  width="600"
  height="600"
  viewBox="0 0 600 600"
  xmlns="http://www.w3.org/2000/svg"
>
  <g transform="translate(300,300)">
    <path d="M121.9,-184.3C162.7,-163.4,203.7,-137.6,222,-100.5C240.3,-63.4,236,-15,230.1,33.8C224.2,82.7,216.8,132,188.1,160.2C159.4,188.4,109.4,195.4,62.4,206.6C15.3,217.8,-28.8,233.2,-74.5,230.4C-120.2,227.7,-167.4,206.8,-188.9,170.2C-210.4,133.7,-206.2,81.3,-206.5,33.9C-206.8,-13.6,-211.6,-56.2,-201.3,-97.4C-191,-138.5,-165.5,-178.2,-129.4,-201.2C-93.4,-224.3,-46.7,-230.6,-3.1,-225.9C40.5,-221.1,81.1,-205.2,121.9,-184.3Z" fill="#7bdcb5" />
  </g>
</svg>
  