<?xml version="1.0" standalone="no"?>
<svg
  width="600"
  height="600"
  viewBox="0 0 600 600"
  xmlns="http://www.w3.org/2000/svg"
>
  <g transform="translate(300,300)">
    <path d="M79.2,-149C98.6,-110.8,107.5,-82,140.6,-51.8C173.6,-21.6,230.8,9.9,224.8,30.3C218.7,50.7,149.4,60.1,114.7,98.3C79.9,136.5,79.7,203.5,53.9,234.3C28.1,265.1,-23.3,259.7,-53.3,229.1C-83.3,198.5,-91.9,142.8,-103,103.8C-114.2,64.8,-127.9,42.6,-126.1,21.2C-124.4,-0.1,-107.2,-20.6,-100.8,-50.8C-94.5,-81,-98.9,-120.8,-83.9,-161C-68.8,-201.1,-34.4,-241.6,-2.3,-238.1C29.9,-234.5,59.8,-187.1,79.2,-149Z" fill="#7bdcb5" />
  </g>
</svg>
  